<!-- icon666.com - MILLIONS vector ICONS FREE --><svg xmlns="http://www.w3.org/2000/svg" viewBox="0 0 128 128"><g><g><circle cx="64" cy="63.997" r="62.25" fill="#54528e"></circle><circle cx="64" cy="63.997" r="54.25" fill="#eff4f9"></circle><polygon points="100.328 41.815 86.185 27.672 64 49.857 41.815 27.672 27.672 41.815 49.857 64 27.672 86.185 41.815 100.328 64 78.143 86.185 100.328 100.328 86.185 78.142 64 100.328 41.815" fill="#f37" style="fill: rgb(208, 22, 22);"></polygon><path d="M66.475,64,86.737,43.737a1.749,1.749,0,1,0-2.474-2.474L64,61.525,43.737,41.263a1.749,1.749,0,0,0-2.474,2.474L61.525,64,41.263,84.263a1.749,1.749,0,1,0,2.474,2.474L64,66.475,84.263,86.737a1.749,1.749,0,0,0,2.474-2.474Z" fill="#cc295f"></path></g><g><path d="M64,0a64,64,0,1,0,64,64A64.072,64.072,0,0,0,64,0Zm0,124.5A60.5,60.5,0,1,1,124.5,64,60.569,60.569,0,0,1,64,124.5Z" fill="#000000"></path><path d="M64,8a1.75,1.75,0,0,0,0,3.5,52.485,52.485,0,1,1-16.976,2.816A1.75,1.75,0,0,0,45.889,11,56.011,56.011,0,1,0,64,8Z" fill="#000000"></path><path d="M86.737,43.737a1.749,1.749,0,1,0-2.474-2.474L64,61.525,43.737,41.263a1.749,1.749,0,0,0-2.474,2.474L61.525,64,41.263,84.263a1.749,1.749,0,1,0,2.474,2.474L64,66.475,84.263,86.737a1.749,1.749,0,0,0,2.474-2.474L66.475,64Z" fill="#000000"></path><path d="M89.2,76.8a1.751,1.751,0,0,0,1.238-2.988l-3.429-3.428a1.75,1.75,0,0,0-2.475,2.474l3.429,3.429A1.743,1.743,0,0,0,89.2,76.8Z" fill="#000000"></path><path d="M101.565,40.577,87.422,26.435a1.8,1.8,0,0,0-2.474,0L64,47.383,43.052,26.435a1.748,1.748,0,0,0-2.474,0L26.435,40.577a1.749,1.749,0,0,0,0,2.475L47.383,64,26.435,84.948a1.749,1.749,0,0,0,0,2.475l14.143,14.142a1.8,1.8,0,0,0,2.474,0L64,80.617l20.948,20.948a1.748,1.748,0,0,0,2.474,0l14.143-14.142a1.751,1.751,0,0,0,0-2.475l-3.506-3.507a1.75,1.75,0,0,0-2.475,2.475l2.269,2.269L86.185,97.853,65.237,76.905a1.8,1.8,0,0,0-2.474,0L41.815,97.853,30.147,86.185,51.1,65.237a1.75,1.75,0,0,0,0-2.474L30.147,41.815,41.815,30.147,62.763,51.1a1.8,1.8,0,0,0,2.474,0L86.185,30.147,97.852,41.815,76.905,62.763a1.75,1.75,0,1,0,2.475,2.474l22.185-22.185A1.751,1.751,0,0,0,101.565,40.577Z" fill="#000000"></path></g></g></svg>