<!-- icon666.com - MILLIONS vector ICONS FREE --><svg viewBox="0 0 426.66667 426.66667" xmlns="http://www.w3.org/2000/svg"><path d="m213.332031 0c-117.820312 0-213.332031 95.511719-213.332031 213.332031 0 117.820313 95.511719 213.335938 213.332031 213.335938 117.820313 0 213.335938-95.515625 213.335938-213.335938-.132813-117.765625-95.566407-213.199219-213.335938-213.332031zm0 405.332031c-106.039062 0-192-85.960937-192-192 0-106.039062 85.960938-192 192-192 106.039063 0 192 85.960938 192 192-.121093 105.988281-86.011719 191.878907-192 192zm0 0"></path><path d="m279.96875 174.3125-66.636719 76.15625-66.632812-76.160156c-3.878907-4.4375-10.617188-4.886719-15.054688-1.011719-4.433593 3.878906-4.886719 10.617187-1.007812 15.054687l74.664062 85.332032c2.027344 2.316406 4.953125 3.644531 8.03125 3.644531s6.007813-1.328125 8.03125-3.644531l74.667969-85.332032c3.878906-4.4375 3.425781-11.175781-1.011719-15.054687-4.433593-3.875-11.171875-3.425781-15.050781 1.011719zm0 0"></path></svg>